<?xml version="1.0" standalone="no"?>
<!DOCTYPE svg PUBLIC "-//W3C//DTD SVG 20010904//EN"
 "http://www.w3.org/TR/2001/REC-SVG-20010904/DTD/svg10.dtd">
<svg version="1.0" xmlns="http://www.w3.org/2000/svg"
 width="400.000000pt" height="400.000000pt" viewBox="0 0 400.000000 400.000000"
 preserveAspectRatio="xMidYMid meet">
<metadata>
Created by potrace 1.14, written by Peter Selinger 2001-2017
</metadata>
<g transform="translate(0.000000,400.000000) scale(0.100000,-0.100000)"
fill="#000000" stroke="none">
<path d="M1198 3883 c-2 -10 6 -46 19 -81 13 -34 23 -69 23 -77 0 -8 14 -35
32 -60 26 -37 44 -50 92 -67 58 -22 116 -61 116 -79 0 -6 -5 -7 -10 -4 -20 12
-143 25 -176 19 -36 -7 -97 -58 -91 -77 2 -7 21 -22 43 -34 21 -12 63 -42 92
-67 30 -25 60 -46 68 -46 7 0 21 -11 30 -25 19 -29 88 -72 119 -75 34 -4 46 0
40 10 -3 6 2 13 12 17 29 10 63 45 63 65 0 10 10 28 22 40 24 24 17 45 -23 65
-32 16 -96 73 -81 73 6 0 27 -8 46 -17 34 -16 37 -15 71 3 25 13 35 25 35 42
0 15 7 26 19 29 17 4 17 8 5 61 -10 43 -21 64 -46 85 -18 15 -38 27 -45 27 -7
0 -30 18 -51 39 -22 22 -50 42 -63 45 -13 3 -60 13 -104 21 -73 14 -122 30
-182 58 -13 6 -26 7 -30 4 -3 -4 -14 0 -24 9 -16 14 -18 14 -21 -3z m414 -218
c10 -4 15 -11 12 -16 -9 -15 -33 -10 -44 10 -10 20 -3 22 32 6z m-124 -285 c8
-8 11 -9 7 -2 -13 25 17 11 61 -30 25 -23 43 -47 40 -54 -3 -7 2 -15 10 -18 9
-3 13 -10 9 -15 -13 -22 -56 -3 -115 52 -35 31 -67 57 -72 57 -5 0 -6 5 -3 10
3 6 2 10 -3 10 -6 0 -12 6 -15 14 -5 11 1 12 31 3 20 -6 43 -18 50 -27z"/>
<path d="M644 3418 c-21 -9 -21 -11 -6 -29 9 -10 28 -19 43 -19 14 0 34 -9 44
-20 10 -11 13 -20 7 -20 -7 0 -12 4 -12 9 0 15 -28 21 -33 7 -7 -18 39 -128
58 -138 8 -5 15 -15 15 -23 0 -7 9 -17 20 -20 11 -3 20 -14 20 -24 0 -19 30
-51 47 -51 11 0 33 -52 33 -78 0 -9 -7 -23 -15 -32 -9 -10 -18 -28 -20 -41 -3
-12 -11 -27 -20 -31 -8 -5 -15 -23 -16 -41 l-1 -32 -10 30 c-5 17 -17 45 -25
63 -8 19 -16 46 -18 61 -2 16 -12 43 -23 62 -10 19 -40 81 -66 139 -44 99 -96
181 -96 152 0 -7 -4 -11 -9 -7 -6 3 -15 -4 -22 -16 -15 -29 -28 -220 -16 -236
6 -9 4 -21 -5 -35 -23 -35 -28 -80 -12 -110 8 -15 14 -40 13 -55 -1 -16 1 -48
5 -72 6 -32 5 -46 -5 -52 -32 -20 -41 -7 -55 71 -6 33 -28 60 -50 60 -27 0
-54 25 -54 50 0 18 -26 30 -67 30 -13 0 -24 6 -24 13 -1 6 -2 17 -3 24 -1 15
-41 45 -88 66 -54 26 -110 22 -147 -9 -28 -23 -31 -31 -31 -86 0 -59 0 -60 53
-107 28 -27 84 -75 122 -107 39 -32 75 -64 80 -71 19 -23 78 -62 86 -57 5 3 9
-2 9 -10 0 -17 18 -31 28 -21 3 3 0 10 -8 15 -10 7 -11 10 -2 10 6 0 12 7 12
15 0 10 10 15 30 15 18 0 33 6 36 15 4 8 15 15 25 15 10 0 19 -7 19 -15 0 -8
7 -15 16 -15 9 0 22 -8 29 -17 12 -16 14 -16 32 6 l19 23 37 -21 c46 -26 44
-26 51 4 5 18 13 25 31 25 13 0 27 -5 30 -10 5 -8 11 -7 20 0 8 7 18 9 23 6 5
-3 17 4 26 16 17 19 19 20 28 5 5 -10 19 -17 31 -17 13 0 27 -4 32 -9 13 -12
77 -17 92 -8 11 7 35 4 85 -9 9 -3 18 -14 20 -26 3 -20 9 -21 82 -22 69 0 81
3 90 19 6 11 14 22 18 25 4 3 17 27 28 53 l21 48 -25 30 c-14 17 -26 37 -26
45 0 7 -11 16 -25 20 -14 3 -25 10 -25 14 0 13 -32 17 -57 8 -33 -11 -28 4 6
23 16 10 37 33 46 53 16 34 16 37 -5 80 -11 25 -35 55 -51 68 -17 13 -42 33
-57 46 -26 21 -41 27 -87 34 -12 2 -24 17 -33 43 -34 99 -55 122 -175 189 -51
28 -131 35 -173 14z m299 -335 c-7 -3 -13 -12 -13 -21 0 -14 -2 -14 -9 -3 -12
19 9 55 24 40 7 -8 6 -13 -2 -16z m-349 -87 c3 -56 12 -125 20 -153 8 -29 11
-53 8 -53 -4 0 0 -5 8 -11 11 -8 12 -12 3 -16 -18 -7 -16 -26 2 -19 9 3 15 0
15 -8 0 -8 -7 -16 -15 -20 -11 -4 -22 9 -40 47 -18 38 -23 44 -19 22 5 -26 4
-27 -6 -12 -7 10 -18 55 -26 100 -12 66 -13 94 -3 147 14 76 14 77 32 77 11 0
16 -24 21 -101z m316 55 c0 -11 -4 -23 -10 -26 -6 -4 -10 5 -10 19 0 14 5 26
10 26 6 0 10 -9 10 -19z m213 -36 c28 -27 34 -49 17 -60 -5 -3 -10 -3 -10 2 0
4 -14 22 -30 40 -17 18 -30 34 -30 37 0 14 28 4 53 -19z m-958 -115 c3 -5 2
-10 -4 -10 -5 0 -13 5 -16 10 -3 6 -2 10 4 10 5 0 13 -4 16 -10z m724 -50 c-2
-64 -19 -85 -19 -22 0 38 9 82 16 82 3 0 4 -27 3 -60z m-647 34 c27 -16 123
-89 130 -99 4 -5 8 -21 8 -35 0 -22 -8 -16 -69 48 -47 49 -79 74 -100 78 -17
4 -31 11 -31 15 0 10 42 5 62 -7z m858 -22 c0 -4 -12 -15 -25 -25 l-25 -18 0
29 c0 16 3 32 6 35 8 7 44 -10 44 -21z m-401 -75 c1 -5 -3 -5 -9 -2 -5 3 -10
16 -9 28 0 21 1 21 9 2 5 -11 9 -24 9 -28z m69 -50 c5 -27 7 -46 4 -42 -8 8
-32 77 -32 95 0 29 18 -6 28 -53z m124 -2 c3 -14 1 -25 -3 -25 -5 0 -9 11 -9
25 0 14 2 25 4 25 2 0 6 -11 8 -25z m-512 -64 c0 -6 -4 -13 -10 -16 -5 -3 -10
1 -10 9 0 9 5 16 10 16 6 0 10 -4 10 -9z"/>
<path d="M542 2960 c0 -14 2 -19 5 -12 2 6 2 18 0 25 -3 6 -5 1 -5 -13z"/>
<path d="M561 2834 c0 -11 3 -14 6 -6 3 7 2 16 -1 19 -3 4 -6 -2 -5 -13z"/>
<path d="M450 2600 c0 -5 5 -10 10 -10 6 0 10 5 10 10 0 6 -4 10 -10 10 -5 0
-10 -4 -10 -10z"/>
<path d="M2705 2330 c-3 -5 -15 -10 -25 -10 -10 0 -20 -4 -22 -9 -1 -5 -10
-11 -18 -13 -8 -2 -27 -24 -43 -50 -15 -26 -38 -55 -52 -64 -28 -18 -59 -101
-49 -130 9 -22 55 -87 67 -92 4 -2 7 -14 7 -27 0 -14 9 -29 20 -35 16 -9 20
-8 20 5 0 8 5 15 10 15 6 0 10 -13 10 -30 0 -20 5 -30 15 -30 21 0 32 27 38
95 5 52 24 137 55 240 5 17 18 47 28 67 17 36 17 38 -1 58 -19 21 -50 27 -60
10z"/>
<path d="M1 2198 c0 -57 3 -96 6 -88 11 30 45 70 54 65 5 -4 6 1 3 9 -4 10 -1
16 10 16 9 0 13 6 10 14 -7 18 25 29 43 14 11 -9 16 -9 24 3 6 9 7 2 3 -21 -4
-19 -19 -48 -33 -65 -15 -16 -36 -47 -47 -68 -10 -21 -25 -44 -33 -50 -12 -10
-13 -7 -8 18 6 26 6 27 -5 10 -6 -11 -15 -23 -20 -26 -12 -8 -5 -202 7 -206 6
-2 21 6 33 17 11 11 26 20 32 20 5 0 10 4 10 8 0 5 18 37 41 72 22 35 49 80
60 99 10 20 29 38 41 41 11 3 35 22 51 43 29 35 29 38 14 55 -10 10 -17 24
-17 31 0 34 -69 65 -107 48 -17 -8 -27 -6 -40 5 -16 14 -95 38 -122 38 -7 0
-11 -37 -10 -102z m56 -320 c-3 -8 -6 -5 -6 6 -1 11 2 17 5 13 3 -3 4 -12 1
-19z"/>
<path d="M1 2064 c0 -11 3 -14 6 -6 3 7 2 16 -1 19 -3 4 -6 -2 -5 -13z"/>
<path d="M1452 1853 c-53 -142 -99 -164 -112 -53 -4 36 -9 45 -25 45 -12 0
-21 -8 -24 -20 -2 -11 -10 -29 -17 -40 -13 -19 -14 -19 -14 6 0 70 -96 63
-135 -10 -8 -14 -14 -20 -15 -13 0 14 -40 17 -40 2 0 -5 -15 -30 -34 -55 l-35
-45 -3 31 c-2 18 -12 38 -23 45 -32 21 -84 -10 -110 -63 -11 -24 -22 -43 -25
-43 -3 0 -11 14 -17 30 -17 45 -36 37 -69 -32 -16 -35 -37 -64 -46 -66 -14 -3
-18 7 -20 60 -3 59 -5 63 -28 66 -35 4 -75 -41 -100 -111 -25 -71 -25 -98 -1
-128 l19 -24 29 21 c15 11 35 34 43 52 12 25 19 30 38 25 27 -6 65 25 91 76
l18 34 16 -84 c8 -46 18 -101 22 -121 6 -40 23 -58 34 -39 4 6 4 35 0 64 -15
117 12 227 63 253 25 13 29 13 34 -1 13 -33 -5 -88 -41 -125 -39 -40 -43 -50
-19 -50 24 0 92 60 134 118 l38 54 11 -51 c6 -29 11 -67 11 -85 0 -38 22 -72
39 -61 9 5 11 29 6 89 -4 51 -3 97 4 123 12 45 58 90 74 74 16 -16 -3 -88 -34
-122 -32 -36 -36 -49 -15 -49 8 0 41 29 72 64 l57 64 16 -31 c13 -27 22 -32
51 -32 31 0 39 6 68 49 l32 48 0 -85 c0 -96 17 -187 36 -187 9 0 11 41 7 173
-2 94 -6 182 -9 195 -8 39 -31 24 -52 -35z m-792 -195 c0 -27 -29 -118 -46
-147 -42 -71 -60 -11 -23 76 28 66 69 108 69 71z"/>
<path d="M2138 1870 c-55 -17 -93 -49 -120 -102 -51 -102 -48 -132 19 -215 43
-52 80 -65 158 -57 92 10 167 64 179 129 5 27 4 27 -32 21 -20 -3 -42 -13 -49
-22 -24 -33 -84 -56 -127 -49 -33 5 -47 14 -68 44 -34 47 -37 100 -8 126 11
10 17 23 13 29 -3 6 -3 8 2 4 4 -4 13 -4 19 1 21 16 94 22 108 8 10 -9 25 -10
68 -1 30 7 49 13 43 13 -7 1 -12 6 -10 13 1 6 -20 24 -48 40 -51 28 -96 34
-147 18z"/>
<path d="M2400 1810 c-25 -4 11 -5 80 -2 69 3 127 6 129 8 7 7 -162 1 -209 -6z"/>
<path d="M2443 1753 c37 -2 96 -2 130 0 34 2 4 3 -68 3 -71 0 -99 -1 -62 -3z"/>
<path d="M411 1667 l4 -83 -71 -27 c-39 -15 -76 -27 -81 -27 -6 0 -14 24 -19
52 -6 38 -14 54 -26 56 -14 3 -18 -4 -18 -32 0 -68 22 -241 33 -254 21 -27 32
-4 32 68 l0 72 76 28 76 29 7 -54 c8 -69 22 -105 41 -105 11 0 14 9 10 43 -3
23 -10 98 -16 165 -12 139 -15 152 -36 152 -12 0 -14 -14 -12 -83z"/>
<path d="M2325 1740 c3 -5 0 -7 -8 -4 -8 3 -19 -1 -25 -8 -9 -11 -4 -14 21
-16 18 -1 39 -5 48 -7 13 -4 15 0 11 20 -3 19 -11 25 -29 25 -13 0 -21 -4 -18
-10z"/>
<path d="M2488 1723 c12 -2 30 -2 40 0 9 3 -1 5 -23 4 -22 0 -30 -2 -17 -4z"/>
<path d="M2408 1713 c7 -3 16 -2 19 1 4 3 -2 6 -13 5 -11 0 -14 -3 -6 -6z"/>
<path d="M2318 1693 c7 -3 16 -2 19 1 4 3 -2 6 -13 5 -11 0 -14 -3 -6 -6z"/>
<path d="M2278 1683 c7 -3 16 -2 19 1 4 3 -2 6 -13 5 -11 0 -14 -3 -6 -6z"/>
<path d="M2548 1673 c18 -2 45 -2 60 0 15 2 0 4 -33 4 -33 0 -45 -2 -27 -4z"/>
<path d="M2478 1663 c7 -3 16 -2 19 1 4 3 -2 6 -13 5 -11 0 -14 -3 -6 -6z"/>
<path d="M2719 1533 c-33 -8 -33 -83 1 -133 9 -14 22 -49 29 -79 11 -44 11
-55 0 -61 -7 -5 -14 -16 -15 -25 -4 -25 -10 -28 -59 -30 -80 -4 -137 -55 -143
-132 -5 -58 5 -79 46 -94 33 -13 21 -23 -23 -21 -21 1 -33 -3 -30 -8 3 -6 13
-10 21 -10 22 0 17 -20 -6 -21 -11 -1 -24 -3 -30 -4 -5 -1 -33 -3 -62 -4 -46
-1 -50 -3 -33 -14 16 -13 13 -14 -28 -20 -30 -4 -61 -1 -89 9 -57 20 -117 20
-156 0 -17 -9 -45 -16 -62 -16 -28 0 -40 -13 -22 -23 4 -2 2 -2 -5 -1 -7 2
-15 -1 -18 -6 -6 -10 13 -14 50 -12 15 2 21 -4 21 -18 0 -11 -3 -20 -6 -21 -3
0 -16 -2 -30 -4 -14 -2 -37 -7 -52 -10 -15 -4 -47 -1 -75 9 -68 22 -225 26
-249 5 -26 -21 -150 -62 -164 -54 -6 4 -34 4 -61 0 -40 -6 -49 -10 -44 -22 4
-13 -1 -15 -27 -11 -18 3 -39 3 -45 1 -20 -7 -15 -41 7 -48 38 -12 20 -25 -34
-25 -30 0 -57 -4 -60 -9 -4 -5 -18 -4 -34 4 -15 7 -38 14 -52 16 -40 4 -140
-12 -147 -24 -9 -14 47 -57 75 -57 12 0 22 -4 22 -10 0 -5 -24 -10 -52 -11
-29 0 -62 -2 -73 -4 -11 -2 -35 -7 -53 -10 -18 -3 -35 -12 -38 -20 -3 -8 -35
-19 -77 -26 -40 -7 -76 -16 -81 -20 -5 -4 1 -5 14 -2 20 5 21 4 10 -17 -9 -16
-15 -19 -23 -11 -14 14 -30 14 -22 0 4 -5 -7 -15 -24 -22 -41 -15 -33 -33 12
-29 30 2 36 0 31 -13 -3 -8 -12 -15 -19 -15 -6 0 -20 -9 -30 -20 -18 -19 -17
-20 62 -13 54 4 82 2 87 -5 4 -6 29 -14 55 -18 36 -5 48 -10 47 -23 -1 -11 9
-17 32 -19 17 -2 32 -8 32 -13 0 -15 -33 -24 -38 -11 -2 7 -8 9 -13 6 -6 -3
-25 -8 -42 -10 -18 -3 -39 -7 -47 -10 -13 -4 -13 -6 0 -14 8 -5 15 -20 15 -32
0 -15 7 -24 20 -27 11 -2 31 -8 45 -13 24 -10 24 -11 5 -18 -11 -4 -40 -6 -65
-3 -61 7 -45 -6 60 -52 47 -20 89 -41 94 -46 6 -5 120 -9 259 -9 257 0 276 3
277 42 0 7 10 1 21 -14 l21 -28 234 0 c216 0 234 1 234 18 0 14 2 15 10 2 8
-12 10 -12 10 -1 0 10 3 11 14 2 10 -8 16 -9 21 -1 9 15 25 12 25 -5 0 -8 7
-15 16 -15 10 0 14 6 10 17 -24 81 -14 99 18 33 23 -48 36 -51 36 -8 0 30 1
31 15 12 14 -18 14 -17 15 13 0 26 3 30 20 26 11 -3 20 -10 20 -17 0 -6 5 -4
10 4 10 17 62 22 57 6 -4 -13 24 -46 34 -40 5 2 6 11 2 19 -10 27 12 14 42
-25 l30 -38 145 1 145 2 3 30 c5 42 -16 105 -34 105 -8 0 -13 4 -9 9 3 5 0 13
-6 16 -19 12 -20 -2 -2 -32 15 -28 16 -32 1 -46 -15 -15 -18 -14 -43 19 -15
19 -24 42 -21 50 3 8 -8 37 -24 64 -17 28 -30 57 -30 65 0 7 -4 15 -10 17 -5
2 -27 32 -49 68 -22 36 -45 64 -52 62 -7 -2 -9 3 -6 13 4 9 1 15 -9 15 -11 0
-14 5 -10 17 4 10 4 14 0 10 -11 -11 -64 43 -64 65 0 10 5 18 12 18 6 0 9 3 6
6 -4 3 -16 0 -28 -6 -17 -9 -21 -9 -15 0 4 6 -1 18 -11 25 -17 13 -16 14 18
15 20 0 43 -6 50 -13 7 -8 20 -12 28 -9 8 3 12 1 8 -3 -4 -5 12 -31 35 -59 24
-28 79 -105 122 -171 43 -66 99 -152 125 -191 26 -40 50 -88 54 -108 4 -21 15
-40 28 -47 16 -9 19 -8 13 3 -6 10 -5 11 6 0 7 -6 21 -12 31 -12 15 0 18 9 18
57 0 50 2 55 13 38 8 -10 19 -15 26 -11 6 4 14 1 17 -7 3 -8 24 -28 47 -45 42
-30 43 -30 185 -31 l142 -1 1 28 c2 52 8 104 13 109 10 10 26 -39 29 -86 l2
-51 73 0 c69 0 73 1 82 26 9 22 13 24 25 14 8 -7 15 -20 15 -29 1 -9 13 4 27
28 l27 44 35 -42 36 -41 98 0 c78 0 99 3 103 15 5 13 9 13 21 3 12 -10 17 -9
25 5 5 10 13 15 19 12 5 -4 9 21 9 59 0 52 -3 66 -15 66 -8 0 -18 12 -21 27
-4 15 -16 42 -27 60 -10 19 -29 73 -42 121 -45 173 -87 298 -111 334 -32 49
-31 55 11 50 24 -3 35 0 35 8 0 21 40 -20 62 -63 10 -21 39 -116 63 -210 l44
-172 0 308 c1 266 -1 307 -14 307 -14 0 -20 -27 -18 -80 1 -8 -9 -1 -20 15
-42 58 -104 115 -126 115 -45 0 -141 -61 -141 -90 0 -15 -21 -12 -40 5 -10 9
-31 20 -48 25 -25 7 -36 4 -56 -11 -13 -10 -36 -20 -50 -21 -19 -2 -25 -7 -21
-17 5 -12 3 -12 -12 1 -10 9 -34 23 -53 33 -19 10 -60 35 -90 57 -100 71 -224
150 -285 182 -57 30 -60 33 -57 65 3 36 -30 101 -68 136 -12 11 -31 38 -42 59
-32 62 -91 136 -108 135 -8 -1 -22 -3 -31 -6z m113 -130 c26 -60 26 -78 0 -81
-18 -3 -26 5 -42 43 -16 37 -17 49 -7 60 20 23 32 17 49 -22z m301 -444 c53
-50 97 -96 97 -102 0 -6 -12 1 -27 15 -24 23 -30 25 -46 13 -10 -7 -14 -16 -8
-19 5 -3 11 0 14 6 3 10 7 10 20 -1 10 -7 17 -18 17 -23 0 -6 -6 -5 -15 2 -8
6 -18 9 -23 6 -5 -3 -19 6 -32 19 -22 23 -22 26 -7 43 16 18 15 20 -14 46 -38
35 -47 29 -13 -8 33 -35 26 -43 -9 -10 -15 14 -27 19 -27 13 0 -7 -13 0 -29
15 -27 26 -33 65 -8 49 6 -4 8 0 4 10 -12 32 10 17 106 -74z m-213 -65 c103
-82 136 -123 184 -224 54 -113 75 -198 55 -211 -9 -6 -18 -3 -26 9 -7 9 -18
24 -26 32 -8 8 -27 40 -43 70 -68 132 -116 192 -216 271 -49 38 -88 74 -88 80
0 8 4 8 14 0 12 -10 13 -8 9 10 -5 17 -3 20 7 14 10 -6 12 -4 7 7 -16 44 16
28 123 -58z m408 -154 c13 -16 28 -30 34 -30 32 0 184 -162 222 -237 40 -79 3
-55 -77 51 -21 27 -55 65 -77 83 l-39 34 10 -31 c6 -16 15 -27 20 -24 5 3 7
-1 4 -8 -3 -7 13 -37 35 -67 22 -29 37 -57 34 -62 -3 -5 -1 -9 4 -9 6 0 8 -10
5 -21 -6 -21 -7 -21 -25 5 -11 14 -26 26 -34 26 -19 0 -18 -7 6 -32 22 -24 26
-38 10 -38 -15 0 -140 144 -184 212 l-18 27 25 -12 c14 -6 24 -14 22 -17 -2
-3 3 -14 11 -24 23 -32 30 8 7 41 -10 15 -24 39 -31 53 -12 25 -23 43 -55 92
-16 24 -16 27 -2 22 9 -4 15 -3 14 2 -1 5 2 18 6 28 9 21 6 23 73 -64z m-1591
24 c-3 -3 -12 -4 -19 -1 -8 3 -5 6 6 6 11 1 17 -2 13 -5z m1943 -24 c0 -5 -2
-10 -4 -10 -3 0 -8 5 -11 10 -3 6 -1 10 4 10 6 0 11 -4 11 -10z m-1540 -142
c64 -33 174 -133 164 -149 -3 -5 6 -13 19 -18 14 -6 29 -16 33 -23 6 -10 4
-10 -9 1 -12 9 -17 10 -17 2 0 -6 6 -14 14 -17 8 -3 12 -12 10 -19 -3 -8 2
-12 13 -12 11 1 18 -5 18 -15 0 -9 4 -20 9 -25 5 -5 6 -2 1 6 -5 10 -4 12 4 7
6 -4 9 -11 6 -16 -3 -5 5 -26 17 -47 28 -50 14 -35 -54 58 -83 111 -212 243
-240 244 -34 2 -68 15 -68 26 0 6 -4 8 -9 5 -5 -3 -11 1 -15 9 -9 25 36 18
104 -17z m-975 12 c3 -5 1 -10 -4 -10 -6 0 -11 5 -11 10 0 6 2 10 4 10 3 0 8
-4 11 -10z m640 -17 c58 -8 76 -14 70 -22 -3 -5 11 -15 30 -21 19 -6 35 -16
35 -21 0 -13 -6 -11 -42 7 -24 13 -36 14 -49 5 -14 -8 -20 -7 -27 5 -5 8 -26
26 -48 40 -21 14 -30 22 -19 18 11 -4 34 -9 50 -11z m511 -30 c-7 -7 -26 7
-26 19 0 6 6 6 15 -2 9 -7 13 -15 11 -17z m352 -94 c-19 -12 -25 -11 -32 7 -6
15 -4 15 11 3 15 -12 16 -12 10 5 -6 16 -5 17 8 6 13 -11 13 -15 3 -21z m-873
5 c37 -15 75 -44 58 -44 -10 0 -111 60 -102 60 4 0 24 -7 44 -16z m150 -15
c11 -16 1 -19 -13 -3 -7 8 -8 14 -3 14 5 0 13 -5 16 -11z m-420 -19 c3 -5 2
-10 -4 -10 -5 0 -13 5 -16 10 -3 6 -2 10 4 10 5 0 13 -4 16 -10z m1655 0 c0
-5 -2 -10 -4 -10 -3 0 -8 5 -11 10 -3 6 -1 10 4 10 6 0 11 -4 11 -10z m-1617
-40 c9 -11 13 -20 8 -20 -4 0 -16 9 -26 20 -10 11 -14 20 -9 20 5 0 17 -9 27
-20z m367 -32 c0 -13 -5 -9 -31 19 l-24 26 27 -19 c15 -10 28 -22 28 -26z
m-750 -10 c46 -19 149 -125 157 -160 3 -16 9 -28 13 -28 4 0 11 -16 14 -36 4
-19 10 -43 13 -52 6 -15 5 -16 -12 -2 -14 11 -19 12 -22 3 -6 -18 -16 -16 -41
8 l-23 20 7 -25 c10 -41 -10 -30 -44 23 -41 63 -102 117 -158 141 -50 22 -56
37 -16 46 15 3 31 7 37 8 5 1 -10 11 -33 21 -36 16 -40 20 -23 26 21 8 63 1
57 -10 -2 -3 7 -6 20 -6 13 0 24 6 24 13 0 9 -7 11 -21 7 -14 -5 -19 -3 -15 3
3 6 0 13 -6 16 -7 3 -2 4 12 2 14 -2 41 -10 60 -18z m2564 -11 c4 -19 3 -26
-4 -22 -5 3 -10 18 -10 32 0 32 5 28 14 -10z m-1689 -88 c22 -22 32 -37 23
-34 -11 5 -18 2 -18 -5 0 -10 -3 -10 -15 0 -8 7 -15 18 -15 24 0 6 4 4 10 -4
5 -8 13 -11 17 -6 4 4 -7 21 -25 37 -18 16 -29 29 -24 29 4 0 26 -18 47 -41z
m-46 7 c9 -10 8 -15 -3 -19 -16 -6 -40 16 -29 26 10 11 19 8 32 -7z m635 -55
c-7 -7 -33 33 -34 49 0 8 8 2 19 -15 10 -16 17 -32 15 -34z m-1210 4 c-4 -8
-1 -15 5 -15 6 0 8 -7 4 -17 -4 -11 -3 -14 5 -9 8 5 10 2 6 -8 -3 -9 -1 -16 5
-16 6 0 8 -7 5 -15 -4 -8 -1 -15 5 -15 6 0 11 -5 11 -11 0 -5 -5 -7 -12 -3 -8
5 -9 -5 -5 -37 7 -42 6 -43 -8 -19 -13 23 -14 23 -15 5 -1 -11 -10 14 -20 55
-23 90 -24 106 -5 63 19 -43 26 -42 14 2 -6 19 -7 40 -4 45 9 15 15 12 9 -5z
m727 -67 c17 -31 2 -19 -32 25 -30 39 -31 40 -5 17 15 -14 32 -33 37 -42z
m-1198 32 c8 0 8 -3 1 -10 -12 -12 -44 -3 -44 12 0 6 7 7 16 4 9 -3 21 -6 27
-6z m1171 -50 c-6 -5 -24 21 -24 34 0 6 6 1 14 -10 8 -10 12 -21 10 -24z
m-187 -86 c-3 -3 -12 -4 -19 -1 -8 3 -5 6 6 6 11 1 17 -2 13 -5z m1383 -9 c0
-8 -7 -15 -15 -15 -16 0 -20 12 -8 23 11 12 23 8 23 -8z"/>
<path d="M3036 1004 c-9 -24 -7 -27 9 -10 17 17 19 26 6 26 -5 0 -12 -7 -15
-16z"/>
<path d="M3276 765 c4 -8 8 -15 10 -15 2 0 4 7 4 15 0 8 -4 15 -10 15 -5 0 -7
-7 -4 -15z"/>
<path d="M3356 522 c-3 -5 1 -15 9 -22 16 -14 20 -3 6 19 -5 8 -11 9 -15 3z"/>
<path d="M1985 260 c3 -5 8 -10 11 -10 2 0 4 5 4 10 0 6 -5 10 -11 10 -5 0 -7
-4 -4 -10z"/>
<path d="M1917 1424 c-19 -65 -53 -121 -80 -130 -28 -9 -32 2 -32 74 0 52 -3
67 -14 67 -8 0 -18 -14 -23 -31 -10 -40 -80 -120 -96 -110 -7 4 -12 27 -12 51
0 40 -3 45 -27 51 -54 14 -88 -24 -128 -139 -22 -62 -40 -80 -66 -67 -31 17
-46 60 -52 153 -5 96 -17 124 -37 86 -8 -13 -10 -41 -7 -71 6 -47 5 -48 -17
-42 -26 6 -56 -26 -91 -96 -27 -53 -85 -120 -105 -120 -11 0 -23 15 -34 44 -9
24 -24 47 -32 50 -21 8 -79 -38 -94 -75 -7 -16 -15 -28 -17 -25 -8 8 -33 148
-33 184 0 28 -3 33 -21 30 -15 -2 -27 -18 -41 -55 -11 -30 -33 -64 -51 -79
l-32 -27 -3 66 c-3 66 -19 96 -43 81 -8 -5 -10 -31 -5 -89 7 -93 5 -95 -64
-95 -29 0 -43 -6 -58 -25 l-20 -25 -6 26 c-9 36 -29 25 -37 -22 -18 -103 -85
-213 -123 -201 -6 2 -18 40 -26 85 -8 45 -18 82 -22 82 -26 0 -15 -152 13
-186 28 -34 98 -3 140 64 l29 46 0 -31 c0 -41 9 -63 26 -63 11 0 14 17 14 73
0 48 6 83 18 107 16 33 20 35 68 36 l51 1 6 -72 c4 -40 9 -80 13 -89 7 -17 28
-17 30 0 0 5 4 16 7 24 4 8 3 48 -1 88 -8 73 -8 73 18 87 15 8 41 30 58 49 17
20 34 36 37 36 3 0 5 -12 5 -27 0 -46 31 -207 41 -218 15 -15 29 14 29 58 0
42 12 70 43 105 28 30 41 28 55 -12 28 -77 86 -86 121 -18 11 21 26 44 35 51
13 11 16 9 21 -12 4 -14 14 -28 22 -32 24 -9 84 28 103 63 17 31 17 31 35 12
27 -30 80 -27 101 5 16 24 18 25 35 9 28 -26 63 -11 84 35 16 35 21 39 45 35
22 -5 34 1 64 30 20 20 36 30 36 23 0 -22 34 -47 62 -47 17 0 37 12 57 35 l30
35 3 -95 c3 -94 17 -127 29 -69 4 16 7 93 8 172 1 114 -2 142 -13 142 -8 0
-20 -23 -29 -56z m-311 -149 c-18 -61 -31 -74 -53 -52 -14 14 -14 22 -3 62 7
26 24 54 39 66 l26 21 3 -21 c2 -12 -4 -46 -12 -76z m-261 -15 c16 -51 -19
-130 -58 -130 -14 0 -3 116 12 134 18 22 38 20 46 -4z"/>
<path d="M351 1136 c-14 -17 -7 -36 14 -36 22 0 29 20 13 36 -13 13 -16 13
-27 0z"/>
<path d="M115 1075 c-27 -14 -63 -35 -80 -49 -24 -20 -27 -26 -17 -39 7 -8 17
-54 23 -103 12 -95 23 -134 38 -134 19 0 19 16 5 115 -8 55 -16 109 -17 119
-1 13 12 28 43 46 58 34 85 41 106 25 16 -11 16 -14 -2 -44 -10 -18 -36 -42
-57 -52 -39 -20 -46 -47 -11 -41 105 20 134 11 134 -40 0 -35 -37 -73 -99
-100 -51 -23 -43 -41 13 -28 74 16 116 64 116 131 0 40 -30 79 -60 79 -24 0
-25 8 -5 34 20 27 19 70 -3 89 -26 23 -68 21 -127 -8z"/>
<path d="M2460 556 c0 -8 -6 -17 -12 -19 -7 -3 -8 -6 -2 -6 5 -1 18 5 28 12
17 12 17 14 2 20 -10 4 -16 1 -16 -7z"/>
<path d="M2510 510 c0 -5 5 -10 11 -10 5 0 7 5 4 10 -3 6 -8 10 -11 10 -2 0
-4 -4 -4 -10z"/>
<path d="M2555 450 c3 -5 8 -10 11 -10 2 0 4 5 4 10 0 6 -5 10 -11 10 -5 0 -7
-4 -4 -10z"/>
<path d="M2640 310 c0 -5 5 -10 10 -10 6 0 10 5 10 10 0 6 -4 10 -10 10 -5 0
-10 -4 -10 -10z"/>
<path d="M2710 200 c0 -5 5 -10 11 -10 5 0 7 5 4 10 -3 6 -8 10 -11 10 -2 0
-4 -4 -4 -10z"/>
<path d="M2690 146 c0 -2 7 -9 15 -16 13 -11 14 -10 9 4 -5 14 -24 23 -24 12z"/>
<path d="M2725 100 c3 -5 8 -10 11 -10 2 0 4 5 4 10 0 6 -5 10 -11 10 -5 0 -7
-4 -4 -10z"/>
</g>
</svg>
